<?xml version="1.0" encoding="utf-8"?>
<!-- Generator: Adobe Illustrator 25.2.1, SVG Export Plug-In . SVG Version: 6.00 Build 0)  -->
<svg version="1.1" id="Livello_1" xmlns="http://www.w3.org/2000/svg" xmlns:xlink="http://www.w3.org/1999/xlink" x="0px" y="0px"
	 viewBox="0 0 1200 1600" style="enable-background:new 0 0 1200 1600;" xml:space="preserve">
<style type="text/css">
	.st0{fill:#E002D5;}
</style>
<g>
	<polygon class="st0" points="364.5,744.4 364.4,746.1 364.2,747.8 363.9,749.4 363.4,751.6 362.9,753.1 362,755.1 361.3,756.4 
		360.1,758.2 359.1,759.4 357.8,760.6 356.6,761.7 354.6,763.1 353.3,764 351.8,764.8 350.4,765.5 348,766.3 345,767.3 343.4,767.6 
		340.9,768 339.4,768.2 337.1,768.4 335.7,768.5 333.4,768.6 328.5,768.9 326.3,768.9 324.9,768.8 322.6,768.6 321.1,768.4 
		319.3,768.1 317.8,767.6 315.6,766.9 314.2,766.2 312.7,765.5 311.3,764.8 309.9,764 306.7,761.7 305.5,760.7 303.7,759.3 
		302.5,758.3 301.4,757.2 300.5,756.3 300.4,755.6 301,754.7 301.4,754.2 302.4,753.1 305.2,750.4 306.1,749.3 307.8,746.7 
		308.7,745.6 309.7,744.5 310.9,743.9 312,744.1 313.1,744.9 316.3,747.1 317.8,747.9 319.2,748.6 321.6,749.7 323.1,750.2 
		324.7,750.7 326.3,751 328.6,751.1 330.3,751.2 336.6,750.8 338.2,750.6 339.1,750.4 340.6,749.8 341.9,749 342.9,748 343.4,747.3 
		344,745.8 343.9,744.1 343.7,743.3 342.9,741.8 342.4,741.2 341.1,740.2 340.3,739.9 338.7,739.3 337,738.9 335.3,738.6 
		325.7,737.7 322.7,737.1 321.1,736.7 318.8,735.9 317.3,735.4 315.8,734.7 312.4,732.9 311.1,732 309.5,731.1 308.2,730.2 
		306.5,728.8 305.6,727.5 304.7,726 304.1,724.5 303.4,722.3 303.1,720.8 302.8,718.6 302.6,715.4 302.7,713.7 302.9,711.3 
		303.2,709.8 303.6,708.5 304.1,707 305.1,704.8 305.8,703.3 306.6,702.1 307.6,701 309.2,699.5 310.6,698.5 311.9,697.6 
		313.3,696.9 315.2,695.8 318.2,694.5 319.7,694 322.1,693.6 323.7,693.3 326.7,692.9 328.9,692.5 330.6,692.3 332.1,692.2 
		333.7,692.2 336.7,692.5 338.2,692.7 338.9,692.9 340.6,693.1 344,693.7 345.7,694.1 347.3,694.6 349.1,695.2 350.7,695.8 
		352.2,696.5 353.7,697.1 355.6,698.2 357,698.9 358.3,699.8 359.3,700.7 359.3,701.7 358.7,702.8 357.5,704.9 356.7,706.1 
		352.9,711.1 351.8,712.5 350.6,713.5 349.8,713.9 349.1,713.7 348,713.2 346.5,712.3 345,711.7 344.3,711.4 342.8,710.9 342,710.7 
		340.3,710.3 337.9,709.8 336.3,709.7 333.7,709.5 331.1,709.5 329.3,709.6 327.6,709.9 326,710.4 325.4,710.7 324.2,711.6 
		323.7,712.2 323,713.6 322.8,715.3 323.1,716.6 323.9,717.9 325,718.9 326.2,719.5 326.9,719.8 328.4,720.1 331,720.4 334.4,720.6 
		336.1,720.9 339.6,721.7 342.8,722.7 345.1,723.2 346.6,723.7 349.5,724.7 351.5,725.6 352.9,726.3 354.3,727.1 355.6,727.9 
		358.6,730.3 359.7,731.5 360.7,732.7 361.9,734.6 362.7,735.9 363.4,737.4 363.8,738.9 364.2,741.1 364.4,742.7 	"/>
	<path class="st0" d="M490.9,729.7l-0.1,1.6l-0.2,2.3l-0.2,1.5l-0.6,3l-0.2,2.3l-0.2,1.5l-0.3,1.6l-0.4,1.5l-1,2.1l-0.7,1.4
		l-2.7,4.5l-0.9,1.3l-1,1.3l-1,1.1l-1.6,1.7l-1.1,1l-1.3,1l-1.2,0.9l-1.8,1.2l-1.3,0.8l-1.5,0.8l-1.4,0.6l-2,0.8l-1.5,0.4l-3.2,1
		l-1.7,0.5l-1.6,0.4l-1.7,0.4l-1.7,0.3l-1.7,0.1h-5.5l-3.4-0.2l-3.3-0.4l-1.4-0.3l-1.5-0.4l-5.5-1.8l-1.6-0.5l-1.7-0.7l-3.2-1.4
		l-1.5-0.8l-1.5-0.9l-1.3-1l-1.3-1.1l-1.2-1.3l-1.1-1.3l-2.7-2.7l-1-1.2l-1-1.3l-0.8-1.3l-0.8-2l-1.5-4.6l-0.6-2.1l-0.3-1.5
		l-0.3-1.6l-0.3-1.5l-0.3-2.2l-0.1-1.5l-0.1-1.7v-1.7l0.1-1.7l0.1-1.8l0.2-1.7l0.3-1.7l0.4-1.7l0.5-1.7l0.5-1.5l0.6-1.6l0.7-2.3
		l0.7-1.6l0.4-0.9l0.8-1.5l1.4-2.2l1-1.4l0.5-0.8l1.2-1.2l1.7-1.4l1.3-1l1.3-0.9l3-2l1.3-0.8l1.4-0.8l1.4-0.7l2.1-0.9l1.4-0.5
		l1.5-0.5l1.5-0.4l3.8-0.7l1.5-0.3l5.1-0.6l3.2-0.2l3,0.2l2.4,0.1l1.7,0.2l1.7,0.3l1.7,0.4l1.7,0.3l1.6,0.4l1.5,0.4l1.5,0.5l2.1,0.8
		l1.4,0.6l3.3,1.9l1.3,0.9l1.3,1l1.7,1.6l1.1,1l1.1,1.1l0.9,1.2l1.4,1.9l0.8,1.3l0.7,1.3l0.8,1.3l1.1,2l0.8,1.3l0.7,1.5l0.5,1.4
		l0.5,2.3l0.6,3l0.2,1.7l0.3,1.7L490.9,729.7z M466.2,742.9l0.9-1.4l1-2.2l0.6-1.5l0.5-2.3l0.2-1.5l0.2-2.4v-1.7l-0.1-1.7l-0.1-1.6
		l-0.6-3l-0.4-1.4l-1.1-2.2l-0.8-1.3l-1.4-1.8l-1-1.1l-1.5-1.6l-1.1-0.9l-2.6-1.5l-1.4-0.6l-1.6-0.5l-1.6-0.3l-3.2-0.2l-1.5,0.1
		l-2.2,0.1l-1.5,0.3l-2.6,0.7l-1.6,0.6l-2.3,1.2l-1.4,0.9l-1.6,1.4l-1.1,1.2l-1.1,1.5l-0.8,1.3l-0.3,0.6l-0.9,2.1l-0.5,1.5l-0.3,0.7
		l-0.3,1.4l-0.2,1.4l-0.1,1.4l-0.1,1.5v1.5l0.1,1.6l0.3,1.6l0.1,0.9l0.4,1.5l0.2,0.7l0.5,1.4l0.4,0.8l0.8,1.4l0.5,0.8l1.1,1.4
		l0.6,0.7l1.2,1.2l2,1.7l1.4,0.9l1.6,0.8l1.5,0.6l2.1,0.7l1.5,0.3l2.5,0.3l1.7,0.1l2.5-0.2l1.6-0.2l2.2-0.5l1.4-0.6l2.2-1.4l1.2-0.9
		l1.6-1.6l1-1.1L466.2,742.9z"/>
	<polygon class="st0" points="609.4,731.4 609.6,734.7 609.5,736.2 609.4,738.5 609.2,740 608.8,742.4 608.5,744.1 608.1,746.4 
		607.7,747.9 606.9,750 606.3,751.4 605.4,753.6 604.7,755 603.4,757 602.4,758.3 601.2,759.6 599.9,760.7 597.9,762.4 596.5,763.3 
		594.5,764.5 593.2,765.2 591.1,766.2 589.6,766.7 587.3,767.5 585.8,767.9 583.5,768.3 582,768.6 578.9,768.8 574.2,768.8 
		571.9,768.6 570.4,768.5 564.8,767.9 563.2,767.6 562.3,767.5 560.7,767 559.9,766.7 558.2,766 556,765 554.5,764.1 553,763.1 
		550.4,760.8 549.2,759.7 547.9,758 547,756.8 545.4,754.2 544.5,752.8 543.7,751.2 543,749.6 542.4,748.1 542,746.7 541.6,745.2 
		541.2,743 540.9,741.2 540.7,739.5 540.5,736.1 540.4,734.5 540.7,728.3 540.7,726.7 540.5,720.5 540.5,718.9 540.8,712.7 
		540.8,703.3 540.6,700.1 540.6,698.4 540.7,696.7 541,695.1 541.7,694.1 543,693.8 546.3,693.6 550.2,693.9 551.8,693.9 
		555.1,693.8 556.6,693.9 559,694 560.3,694.3 561.1,695.2 561.4,696.5 561.5,697.9 561.5,699.4 561.3,703.3 561.3,705 561.6,711.1 
		561.6,712.7 561.5,718.9 561.5,720.5 561.2,726.7 561.2,728.3 561.1,734.5 561.2,736.1 561.4,738.6 561.7,740.2 562.3,742.4 
		562.9,744 563.9,746.3 564.9,747.5 566.5,749.2 567.8,750 570.1,750.8 571.6,751.2 574.2,751.4 575.8,751.4 578.5,750.9 580,750.5 
		581.9,749.6 583.2,748.8 584.8,747.4 585.8,746.2 586.9,744.1 587.7,742.5 588.2,740.9 588.5,739.3 588.9,736.3 589,734.7 
		588.6,728.5 588.6,726.9 588.9,720.6 588.9,719 589.1,712.8 589.1,711.2 588.9,705 588.8,703.3 588.5,699.1 588.5,696.6 
		588.9,695.2 589.8,694.3 591.1,694 593.2,694 598.4,694.4 600,694.4 604,694.1 605.6,694.1 607.2,694.2 608.5,694.5 609.3,695.3 
		609.4,696.5 609.5,699.5 609.5,701 609.4,703.3 609.4,705 609.7,711.2 609.7,712.8 609.5,719 609.5,720.6 609.1,726.9 	"/>
	<polygon class="st0" points="731.8,709.9 731.7,711.5 731.7,726.5 732,732.3 732,734 732.2,747.3 732.2,749 732.1,749.8 732,751.5 
		731.7,756.4 731.8,762.3 731.7,763.7 731.3,764.9 730.5,766 729.5,766.7 728.6,767 727.2,767.1 722,767.3 720.4,767.4 717.9,767.5 
		716.2,767.5 714.9,767.2 713.7,766.7 712.5,765.8 711.6,764.5 710.1,761.6 709.2,760.2 705.2,755.3 704.2,754.1 700.3,749.2 
		699.4,747.9 695.8,742.7 694.9,741.4 691,736.6 690,735.4 686.2,730.4 685.3,729.6 684.6,729.9 684.3,731.1 684.1,736.2 
		684.1,737.8 684.2,742.9 684.2,744.5 684.3,750.1 684.3,751.7 684,757.4 684.1,759 684.7,763.1 684.8,764.7 684.5,766 683.8,766.7 
		683.1,766.9 681.9,767.1 681.1,767.2 679.4,767.3 674.7,767.2 673.1,767.2 669,767.4 667.3,767.4 665.8,767.3 664.7,767.1 
		663.9,766.6 663.5,765.9 663.3,764.9 663.2,764.2 663.2,762.7 663.4,759.3 663.5,757.7 663.2,752.4 663.2,750.7 663.4,738.4 
		663.5,736.8 663.8,731.4 663.9,729.8 663.9,722.8 663.5,717.5 663.5,715.9 663.9,710.5 663.8,708.9 663.4,703.4 663.3,701.8 
		663.3,699.5 663.4,698 663.6,696.5 663.8,695.4 664.1,694.7 664.7,694.3 665.8,694.1 668.9,693.9 671.9,694.1 679.5,694.1 
		680.7,694.2 681.2,694.7 681.8,695.6 686,700.1 687,701.3 690.8,706.2 691.8,707.4 695.5,712.3 696.5,713.5 700.2,718.6 
		701.1,719.8 704.9,724.7 705.9,725.9 709.6,730.9 710.4,731.6 711.2,731.7 711.9,731.2 711.9,730.1 711.2,725.9 711.1,724.3 
		711.4,719.9 711.4,718.3 711,712.1 711,710.5 711.4,704.3 711.3,702.7 711,699 711,696.5 711.3,695.2 711.7,694.3 712.4,693.9 
		713.6,693.7 714.5,693.7 716.2,693.6 720.8,693.9 722.4,693.9 725.9,693.7 727.4,693.8 729.7,693.9 730.8,694.1 731.5,694.4 
		732.1,695.2 732.3,696.6 732.4,697.5 732.5,699.2 732.3,702.3 732.1,703.9 	"/>
	<path class="st0" d="M856.4,732.4l-0.1,1.7l-0.1,2.4l-0.3,1.6l-0.7,2.3l-0.5,1.6l-0.6,1.5l-0.6,1.6l-0.6,1.7l-0.6,1.5l-1.1,2.2
		l-0.8,1.3l-1.4,1.6l-1,1.1l-1.7,1.6l-2.2,2.2l-1.3,1.1l-1.9,1.5l-1.3,0.8l-2,1.1l-1.3,0.6l-2.2,0.8l-1.5,0.5l-1.6,0.4l-1.6,0.3
		l-6.2,0.9l-1.5,0.1l-2.2,0.2h-1.6l-3.2-0.1l-2.6-0.2h-1.6l-3.2,0.2l-2.5,0.1l-1.7,0.1l-1.5-0.1H794l-1.5-0.1l-4.3-0.4l-0.8-0.4
		l-0.5-0.5l-0.2-1.1l-0.1-1.6l0.1-0.8l0.2-3v-1.4l0.1-2.3v-1.5l0.1-1.6v-1.6l-0.1-5.4v-1.6l-0.2-5.4l0.1-1.5l0.1-2.2l0.2-1.5
		l0.1-1.7v-1.6L787,727l-0.1-1.7v-0.9l-0.1-1.7l0.4-5.4v-1.6l-0.1-5.4v-1.6l-0.3-5.4v-3.9l0.1-1.6l0.3-1.5l0.2-1.1l0.4-0.6l1.1-0.3
		l1.7-0.2l1.5-0.2l1.6-0.1l8.9,0.1h1.6l4.9,0.3l0.8,0.1h1.8l4.2-0.2l1.5-0.1h1.6l2.5,0.2l3.2,0.2l1.6,0.2l2.6,0.4l1.6,0.3l1.5,0.4
		l3.6,1.3l1.5,0.7l1.5,0.8l1.4,0.8l3.3,2.3l1.3,1.1l1.2,1l2.2,2.1l1,1l0.9,1.1l0.7,1.3l1.1,2.2l0.6,1.5l0.5,1.6l0.6,1.6l0.5,1.6
		l0.4,1.6l0.4,2.2l0.3,1.6l0.3,1.7l0.2,1.6l0.1,2.4l0.1,1.6L856.4,732.4z M833.3,741.1l0.7-1.5l0.6-1.7l0.4-1.5l0.4-2.2l0.1-1.4
		l0.1-2.3v-3.2l-0.1-1.6l-0.3-2.3l-0.4-1.5l-0.2-0.6l-0.8-1.5l-1.5-2.1l-0.5-0.5l-1-1.1l-1.1-1.1l-1.2-0.9l-2.2-1.3l-1.4-0.6
		l-1.4-0.3l-1.6-0.3l-2.5-0.1l-1.7-0.1H815l-2.2-0.1l-1.5,0.1l-2.2,0.3l-1.1,0.3l-0.5,0.5l-0.3,1.2l-0.1,0.9l-0.1,1.5l0.2,3l0.1,1.6
		l0.2,2.2l0.2,1.6l0.1,1.6v1.6l-0.1,2.2v4.9l-0.1,1.7l-0.1,1.6l-0.2,2.2v1.4l-0.1,2.3l0.1,1.5l0.3,2.4l0.4,1.1l0.6,0.5l1.2,0.1
		l9.4-0.6l2.3-0.1l1.6-0.3l1.7-0.5l1.6-0.6l1.5-0.7l1.3-0.9l1.8-1.6l1-1.2L833.3,741.1z"/>
	<polygon class="st0" points="508.6,542.8 503.5,556 502.9,557.6 501.1,563.5 500.5,565.1 497.9,571 497.4,572.6 495.7,578.4 
		495.1,580.1 492.5,585.6 491.8,587.3 490.2,593.3 489.6,594.9 486.9,600.6 486.4,602.2 484.5,608.1 484,609.8 482.2,615.7 
		481.8,616.7 481.2,617.2 480.5,617.3 473.4,617.1 465.2,616.6 464.2,616.4 463.7,615.6 461,610.4 460.5,608.9 458.6,603.5 
		458.2,602 456.3,596.6 455.8,595.2 453.7,589.8 453,588.3 451.2,583.1 450.6,582.1 450.3,582.1 449.9,583.1 448,588.4 447.5,589.9 
		444.9,595 444.4,596.4 442.7,602 442.2,603.5 440.4,608.8 439.8,610.3 437.8,615.6 437.3,616.7 436.1,617.2 429.6,616.7 
		427.9,616.7 421.4,617.2 420.4,616.7 420,615.5 417.1,609.8 416.6,608.2 415.1,602.2 414.6,600.6 411.9,594.7 411.3,593.2 
		409.1,587.5 408.6,585.8 406.8,579.8 406.3,578.2 401,565 400.4,563.4 398.5,557.5 397.7,555.8 395.1,550.4 394.4,548.8 
		391.9,542.8 391.8,541.5 392.5,540.8 393.6,540.5 395.2,540.5 399.3,540.8 401,540.8 408.2,540.9 413.9,540.9 415.3,541 
		415.7,541.4 415.9,542.5 418.3,549.4 418.9,551 421,557.7 421.5,559.3 424.2,565.6 424.8,567.2 426.9,573.6 427.2,575.3 
		428.4,581.9 428.9,582.9 429.5,583 430.1,582.1 431.9,576.8 432.4,575.3 433.8,569.7 434.2,568.1 435.8,563 436.2,561.4 438,555.9 
		438.4,554.5 440.1,549 440.6,547.5 442.2,543 442.6,541.8 443.2,541.3 444.3,541.1 449.6,540.7 451.2,540.6 453.5,540.7 455,540.7 
		456.6,540.8 457.7,541.2 458.3,542.3 458.6,543.1 459.2,544.6 460.4,547.5 460.9,549 462.5,554.5 462.9,555.9 464.6,561.4 
		465,562.9 466.3,568.5 466.8,569.9 469.3,575.1 469.8,576.6 470.1,579 470.4,580.7 470.8,582.2 471.4,583.1 472.1,583 472.6,581.8 
		473.9,575.7 474.3,574.1 475.1,571.9 475.7,570.3 476.5,568 477,566.3 478.1,561.4 478.6,559.7 480.4,555 481,553.4 483,548.7 
		483.5,547.1 484.6,543.1 485,541.8 485.6,541.1 486.9,540.9 492.5,541.3 494.2,541.3 499.8,541 501.5,541 507.1,541.4 508.3,541.4 
		508.7,541.7 	"/>
	<path class="st0" d="M615.3,578.2l-0.1,1.7l-0.2,2.4l-0.2,1.6l-0.6,3.2l-0.2,2.4l-0.2,1.6l-0.3,1.7l-0.4,1.6l-1.1,2.2l-0.7,1.5
		l-2.8,4.7l-1,1.4l-1.1,1.4l-1.1,1.2l-1.7,1.8l-1.2,1.1l-1.4,1.1l-1.3,0.9l-1.9,1.3l-1.4,0.8l-1.6,0.8l-1.5,0.6l-2.1,0.8l-1.6,0.4
		l-3.4,1.1l-1.8,0.5l-1.7,0.4l-1.8,0.4l-1.8,0.3l-1.8,0.1H572l-3.6-0.2l-3.5-0.4l-1.5-0.3l-1.6-0.4l-5.7-1.9l-1.7-0.5l-1.8-0.7
		l-3.4-1.5l-1.6-0.8l-1.6-0.9l-1.4-1.1l-1.4-1.2l-1.3-1.4l-1.2-1.4l-2.8-2.8l-1.1-1.3l-1.1-1.4l-0.8-1.4l-0.8-2.1l-1.6-4.7l-0.6-2.2
		l-0.3-1.6l-0.3-1.7l-0.3-1.6l-0.3-2.3l-0.1-1.6l-0.1-1.8v-1.8l0.1-1.8l0.1-1.9l0.2-1.8l0.3-1.8l0.4-1.8l0.5-1.8l0.5-1.6l0.6-1.7
		l0.7-2.4l0.7-1.7l0.4-0.9l0.8-1.6l1.5-2.3l1.1-1.5l0.5-0.8l1.3-1.3l1.8-1.5l1.4-1.1l1.4-0.9l3.2-2.1l1.4-0.8l1.5-0.8l1.5-0.7
		l2.2-0.9l1.5-0.5l1.6-0.5l1.6-0.4l4-0.7l1.6-0.3l5.3-0.6l3.4-0.2l3.2,0.2l2.5,0.1l1.8,0.2l1.8,0.3l1.8,0.4l1.8,0.3l1.7,0.4l1.6,0.4
		l1.6,0.5l2.2,0.8l1.5,0.6l3.5,2l1.4,0.9l1.4,1.1l1.8,1.7l1.2,1.1l1.2,1.2l1,1.3l1.5,2l0.8,1.4l0.7,1.4l0.8,1.4l1.2,2.1l0.8,1.4
		l0.7,1.6l0.5,1.5l0.5,2.4l0.6,3.2l0.2,1.8l0.3,1.8L615.3,578.2z M593.2,580v-1.8l-0.1-1.8l-0.1-1.7l-0.6-3.2l-0.4-1.5l-1.2-2.3
		l-0.8-1.4l-1.5-1.9l-1.1-1.2l-1.6-1.7l-1.2-1l-2.7-1.6l-1.5-0.6l-1.7-0.5l-1.7-0.3l-3.4-0.2l-1.6,0.1l-2.3,0.1l-1.6,0.3l-2.7,0.7
		l-1.7,0.6l-2.4,1.3l-1.5,0.9l-1.7,1.5l-1.2,1.3l-1.2,1.6l-0.8,1.4l-0.3,0.6l-0.9,2.2l-0.5,1.6l-0.3,0.7l-0.3,1.5l-0.2,1.5l-0.1,1.5
		l-0.1,1.6v1.6l0.1,1.7l0.3,1.7l0.1,0.9l0.4,1.6l0.2,0.7l0.5,1.5l0.4,0.8l0.8,1.5l0.5,0.8l1.2,1.5l0.6,0.7l1.3,1.3l2.1,1.8l1.5,0.9
		l1.7,0.8l1.6,0.6l2.2,0.7l1.6,0.3l2.6,0.3l1.8,0.1l2.6-0.2l1.7-0.2l2.3-0.5l1.5-0.6l2.3-1.5l1.3-0.9l1.7-1.7l1.1-1.2l1.4-1.7
		l0.9-1.5l1.1-2.3l0.6-1.6l0.5-2.4l0.2-1.6L593.2,580z"/>
	<path class="st0" d="M739.8,578.2l-0.1,1.7l-0.2,2.4l-0.2,1.6l-0.6,3.2l-0.2,2.4l-0.2,1.6l-0.3,1.7l-0.4,1.6l-1.1,2.2l-0.7,1.5
		l-2.8,4.7l-1,1.4l-1.1,1.4l-1.1,1.2l-1.7,1.8l-1.2,1.1l-1.4,1.1l-1.3,0.9l-1.9,1.3l-1.4,0.8l-1.6,0.8l-1.5,0.6l-2.1,0.8l-1.6,0.4
		l-3.4,1.1l-1.8,0.5l-1.7,0.4l-1.8,0.4L704,619l-1.8,0.1h-5.7l-3.6-0.2l-3.5-0.4l-1.5-0.3l-1.6-0.4l-5.7-1.9l-1.7-0.5l-1.8-0.7
		l-3.4-1.5l-1.6-0.8l-1.6-0.9l-1.4-1.1l-1.4-1.2l-1.3-1.4l-1.2-1.4l-2.8-2.8l-1.1-1.3l-1.1-1.4l-0.8-1.4l-0.8-2.1l-1.6-4.7l-0.6-2.2
		l-0.3-1.6l-0.3-1.7l-0.3-1.6l-0.3-2.3l-0.1-1.6l-0.1-1.8v-1.8l0.1-1.8l0.1-1.9l0.2-1.8l0.3-1.8l0.4-1.8l0.5-1.8l0.5-1.6l0.6-1.7
		l0.7-2.4l0.7-1.7l0.4-0.9l0.8-1.6l1.5-2.3l1-1.5l0.5-0.8l1.3-1.3l1.8-1.5l1.4-1.1l1.4-0.9l3.2-2.1l1.4-0.8l1.5-0.8l1.5-0.7l2.2-0.9
		l1.5-0.5l1.6-0.5l1.6-0.4l4-0.7l1.6-0.3l5.3-0.6l3.4-0.2l3.2,0.2l2.5,0.1l1.8,0.2l1.8,0.3l1.8,0.4l1.8,0.3l1.7,0.4l1.6,0.4l1.6,0.5
		l2.2,0.8l1.5,0.6l3.5,2l1.4,0.9l1.4,1.1l1.8,1.7l1.2,1.1l1.2,1.2l0.9,1.3l1.5,2l0.8,1.4l0.7,1.4l0.8,1.4l1.1,2.1l0.8,1.4l0.7,1.6
		l0.5,1.5l0.5,2.4l0.6,3.2l0.2,1.8l0.3,1.8L739.8,578.2z M717.8,580v-1.8l-0.1-1.8l-0.1-1.7l-0.6-3.2l-0.4-1.5l-1.2-2.3l-0.8-1.4
		l-1.5-1.9l-1.1-1.2l-1.6-1.7l-1.2-1l-2.7-1.6l-1.5-0.6l-1.7-0.5l-1.7-0.3l-3.4-0.2l-1.6,0.1l-2.3,0.1l-1.6,0.3l-2.7,0.7l-1.7,0.6
		l-2.4,1.3l-1.5,0.9l-1.7,1.5l-1.2,1.3l-1.2,1.6l-0.8,1.4l-0.3,0.6l-0.9,2.2l-0.5,1.6l-0.3,0.7l-0.3,1.5l-0.2,1.5l-0.1,1.5l-0.1,1.6
		v1.6l0.1,1.7l0.3,1.7l0.1,0.9l0.4,1.6l0.2,0.7l0.5,1.5l0.4,0.8l0.8,1.5l0.5,0.8l1.2,1.5l0.6,0.7l1.3,1.3l2.1,1.8l1.5,0.9l1.7,0.8
		l1.6,0.6l2.2,0.7l1.6,0.3l2.6,0.3l1.8,0.1l2.6-0.2l1.7-0.2l2.3-0.5l1.5-0.6l2.3-1.5l1.3-0.9l1.7-1.7l1.1-1.2l1.4-1.7l0.9-1.5
		l1.1-2.3l0.6-1.6l0.5-2.4l0.2-1.6L717.8,580z"/>
	<path class="st0" d="M861.3,581.1l-0.1,1.8l-0.1,2.5l-0.3,1.7l-0.7,2.4l-0.5,1.7l-0.6,1.6l-0.6,1.7l-0.6,1.8l-0.6,1.6l-1.2,2.3
		l-0.8,1.4l-1.5,1.7l-1,1.2l-1.8,1.7l-2.3,2.3l-1.4,1.1l-2,1.6l-1.4,0.8l-2.1,1.2l-1.4,0.6l-2.3,0.8l-1.6,0.5l-1.7,0.4l-1.7,0.3
		l-6.4,1l-1.6,0.1l-2.3,0.2H821l-3.4-0.1l-2.7-0.2h-1.7l-3.4,0.2l-2.6,0.1l-1.8,0.1l-1.6-0.1h-7.4l-1.6-0.1l-4.5-0.4l-0.8-0.4
		l-0.5-0.5l-0.2-1.2l-0.1-1.7l0.1-0.8l0.2-3.2v-1.5l0.1-2.4v-1.6l0.1-1.7v-1.7l-0.1-5.6v-1.7l-0.2-5.6l0.1-1.6l0.1-2.3l0.2-1.6
		l0.1-1.8v-1.7l-0.2-2.7l-0.1-1.8v-0.9l-0.1-1.8l0.4-5.6v-1.7l-0.1-5.6v-1.7l-0.3-5.6v-4.1l0.1-1.7l0.3-1.6l0.2-1.2l0.4-0.6l1.2-0.3
		l1.8-0.2l1.6-0.2l1.7-0.1l9.3,0.1h1.7l5.1,0.3l0.8,0.1h1.9l4.4-0.2l1.6-0.1h1.7l2.6,0.2l3.4,0.2l1.7,0.2l2.7,0.4l1.7,0.3l1.6,0.4
		l3.8,1.4l1.6,0.7l1.6,0.8l1.5,0.8l3.5,2.4l1.4,1.2l1.3,1.1l2.3,2.2l1.1,1.1l0.9,1.2l0.7,1.4l1.2,2.3l0.6,1.6l0.5,1.7l0.6,1.7
		l0.5,1.7l0.4,1.7l0.4,2.3l0.3,1.7l0.3,1.8l0.2,1.7l0.1,2.5l0.1,1.7L861.3,581.1z M837.4,590.1l0.7-1.6l0.6-1.8l0.4-1.6l0.4-2.3
		l0.1-1.5l0.1-2.4v-3.4l-0.1-1.7l-0.3-2.4l-0.4-1.6l-0.2-0.6l-0.8-1.6l-1.6-2.2l-0.5-0.5l-1.1-1.2l-1.2-1.2l-1.3-0.9l-2.3-1.4
		l-1.5-0.6l-1.5-0.3l-1.7-0.3l-2.6-0.1l-1.8-0.1h-2.6l-2.3-0.1l-1.6,0.1l-2.3,0.3l-1.2,0.3l-0.5,0.5l-0.3,1.3l-0.1,1l-0.1,1.6
		l0.2,3.2l0.1,1.7l0.2,2.3l0.2,1.7l0.1,1.7v1.7l-0.1,2.3v5l-0.1,1.8l-0.1,1.7l-0.2,2.3v1.5l-0.1,2.4l0.1,1.6l0.3,2.5l0.4,1.2
		l0.6,0.5l1.3,0.1l9.8-0.6l2.4-0.1l1.7-0.3l1.8-0.5l1.7-0.6l1.6-0.7l1.4-0.9l1.9-1.7l1.1-1.3L837.4,590.1z"/>
	<polygon class="st0" points="358.5,853 358.7,854.6 358.5,856.1 358.4,857.2 358.1,858 357.5,858.5 356.4,858.8 354.3,858.8 
		351.3,858.4 349.7,858.3 343.1,858.3 331.6,858.7 327,858.4 324.8,858.4 323.8,858.7 323.4,859.4 323.3,860.8 323.1,869.8 
		323.2,870.9 323.3,871.5 323.8,871.9 325,872.2 327.6,872.2 331.1,871.9 332.7,871.8 338.7,872 346.4,872 347.9,871.9 351.8,871.6 
		354.2,871.6 355.3,871.8 355.9,872.3 356.3,873.1 356.5,874.3 356.6,875.1 356.7,876.7 356.5,879.7 356.5,881.2 356.6,883.5 
		356.5,885 356.4,886.7 356.2,887.9 355.9,888.7 355.4,889.1 354.2,889.4 351.8,889.4 348,888.9 346.4,888.8 340.4,889 338.7,889 
		327.8,888.8 326.3,888.9 324.9,889.1 323.9,889.4 323.5,890 323.5,891.3 323.4,897.1 323.4,898.7 323,904.3 323,906 323.1,908.2 
		323,909.8 322.9,911.5 322.8,912.7 322.5,913.3 321.9,913.6 320.8,913.8 319,914 317.4,914.1 313.7,914 312.1,914 307.9,914.3 
		304.9,914.1 303.8,913.9 303.2,913.5 303,912.8 302.9,911.7 302.6,906.4 302.5,904.7 302.4,899.4 302.5,897.8 302.9,892.4 
		303,890.8 302.7,885.4 302.7,883.8 302.4,878.4 302.4,876.8 302.6,871.4 302.6,862.8 302.8,857.5 302.8,848.9 303,843.5 
		303.1,842.3 303.3,841.6 303.9,841.3 304.9,841.1 307.1,841.1 310.9,841.4 312.6,841.4 318.5,841.1 320.1,841.1 326,841.4 
		327.6,841.4 333.6,841.1 335.2,841 341.2,841.3 342.8,841.3 348.7,841 350.4,841 352.9,841.1 354.5,841.2 356.2,841.4 357.3,841.5 
		357.9,841.8 358.3,842.4 358.4,843.5 358.5,844.4 358.5,845.9 358.3,849 358.3,850.6 	"/>
	<polygon class="st0" points="480.9,904.5 480.8,906.2 480.4,911.6 480.3,912.6 479.9,913.3 479.4,913.7 466.1,914.1 464.5,914.1 
		459.1,913.7 457.5,913.8 452.3,914.2 450.7,914.3 443.7,914.3 438.4,913.9 436.8,913.9 428.1,914.5 424.7,914.2 423.5,914 
		422.8,913.5 422.5,912.8 422.3,911.7 422.1,909.4 422,907.8 422.1,906.3 422.1,904.7 422.5,899.4 422.5,897.8 422.6,892.4 
		422.5,890.8 422.2,885.4 422.1,883.8 422.3,878.4 422.3,869.8 422.7,864.4 422.6,862.8 422.3,857.5 422.2,855.8 422.2,853.4 
		422.4,850.4 422.4,848.9 422.7,843.6 422.8,842.2 423.1,841.4 423.6,841 424.4,840.9 425.7,840.7 432.3,841.1 438.4,841 440,841 
		446.1,841.4 447.7,841.4 453.8,841 455.4,841 469.2,841.2 470.9,841.1 474.3,840.8 476.8,840.8 478.2,841.1 478.8,841.6 
		479.1,842.3 479.3,843.6 479.3,846.3 479.1,848.9 479.1,850.6 479.2,853.1 479.3,854.6 479.2,856.1 479,857.4 478.5,858.1 
		478,858.5 476.8,858.7 476,858.7 474.4,858.8 464.9,858.6 463.3,858.6 458.1,858.8 456.5,858.8 451.3,858.6 446.7,858.3 
		445.2,858.3 444.4,858.4 443.4,858.6 442.9,859.1 442.8,859.7 442.6,860.8 442.4,863.2 442.4,864.8 442.5,866.5 442.6,867.7 
		442.8,868.4 443.2,868.9 444.3,869.2 447.5,869.4 450.8,869.2 460.4,869.2 471.7,868.6 474.8,868.8 475.9,869 476.5,869.5 
		476.8,870.1 476.9,871.2 477.1,872.9 477.2,874.6 477.2,878 477.4,880.3 477.2,883.3 477,884.5 476.6,885.2 475.9,885.7 474.9,886 
		472.9,886 468.3,885.4 466.7,885.3 458.6,885.9 452.2,885.7 450.6,885.7 446.5,885.3 444.8,885.4 443.6,885.5 443.1,885.9 
		442.8,886.6 442.7,888.1 442.4,890.6 442.3,892.2 442.3,894.4 442.4,895.5 442.7,896.2 443.1,896.6 444.2,896.7 449.7,896.9 
		451.4,896.9 456.8,896.5 464,896.9 465.6,896.9 472.8,896.5 474.3,896.5 475.8,896.6 479.5,897 480.1,897.3 480.5,897.9 480.6,899 
			"/>
	<polygon class="st0" points="604.1,891.4 604,893.1 603.8,894.8 603.5,896.5 603,898.7 602.5,900.1 601.6,902.1 600.9,903.4 
		599.7,905.3 598.7,906.5 597.5,907.7 596.2,908.8 594.2,910.1 592.9,911 591.4,911.8 590,912.5 587.6,913.3 584.6,914.3 583,914.7 
		580.5,915.1 579,915.3 576.7,915.5 575.3,915.6 573,915.7 568.1,916 565.9,916 564.5,915.9 562.2,915.7 560.7,915.5 558.9,915.2 
		557.4,914.7 555.2,913.9 553.8,913.2 552.3,912.5 550.9,911.8 549.5,911 546.3,908.8 545.1,907.8 543.3,906.4 542.1,905.4 
		541,904.2 540.1,903.3 540.1,902.6 540.6,901.7 541,901.2 542,900.1 544.8,897.5 545.7,896.4 547.4,893.7 548.3,892.6 549.3,891.5 
		550.5,890.9 551.6,891.1 552.7,891.9 555.9,894.1 557.4,894.9 558.8,895.7 561.2,896.8 562.7,897.3 564.3,897.8 565.9,898.1 
		568.2,898.2 569.9,898.3 576.2,897.9 577.8,897.7 578.7,897.5 580.2,896.9 581.5,896.1 582.5,895 583,894.3 583.6,892.8 
		583.5,891.1 583.3,890.3 582.5,888.9 582,888.3 580.7,887.3 579.9,887 578.3,886.4 576.6,886 574.9,885.7 565.3,884.7 562.3,884.1 
		560.7,883.7 558.4,882.9 556.9,882.4 555.4,881.7 552,880 550.7,879.1 549.1,878.2 547.8,877.3 546.1,875.8 545.2,874.5 544.3,873 
		543.7,871.5 543,869.4 542.7,867.9 542.4,865.6 542.2,862.4 542.3,860.8 542.5,858.4 542.8,856.9 543.2,855.5 543.7,854 
		544.7,851.8 545.4,850.4 546.2,849.2 547.2,848.1 548.8,846.5 550.2,845.5 551.5,844.6 552.9,843.9 554.8,842.8 557.8,841.6 
		559.4,841.1 561.7,840.7 563.3,840.4 566.3,840 568.5,839.6 570.2,839.4 571.7,839.3 573.3,839.3 576.3,839.6 577.8,839.8 
		578.5,840 580.2,840.2 583.6,840.8 585.3,841.2 586.9,841.7 588.7,842.2 590.3,842.8 591.8,843.5 593.3,844.1 595.2,845.2 
		596.6,845.9 598,846.8 598.9,847.8 598.9,848.8 598.3,849.9 597.1,851.9 596.3,853.1 592.5,858.2 591.4,859.6 590.2,860.6 
		589.4,860.9 588.7,860.8 587.6,860.3 586.1,859.4 584.6,858.8 583.9,858.5 582.4,858 581.6,857.8 579.9,857.4 577.5,856.9 
		575.9,856.7 573.3,856.5 570.7,856.5 569,856.6 567.2,856.9 565.6,857.5 565,857.8 563.8,858.7 563.3,859.3 562.6,860.7 
		562.4,862.3 562.7,863.6 563.5,864.9 564.6,865.9 565.8,866.5 566.5,866.9 568,867.2 570.6,867.5 574,867.7 575.7,868 579.2,868.8 
		582.4,869.8 584.7,870.3 586.2,870.7 589.1,871.7 591.1,872.6 592.5,873.3 593.9,874.1 595.2,874.9 598.2,877.4 599.3,878.6 
		600.3,879.8 601.5,881.6 602.3,882.9 603,884.4 603.4,886 603.8,888.2 604,889.7 	"/>
	<polygon class="st0" points="729.5,849.1 729.4,850.6 729.5,853.6 729.4,855.2 729.3,856 729.1,857.2 728.8,858 728.2,858.5 
		727,858.7 725.4,858.7 722.4,858.4 720.7,858.3 716.1,858.6 714.5,858.6 712,858.4 710.4,858.4 709.7,858.5 708.7,858.8 
		708.3,859.4 708.2,860.7 707.8,866.6 707.8,868.3 708.2,874.3 708.1,875.9 707.7,882 707.6,883.6 707.8,889.6 707.8,898.9 
		707.6,904.9 707.7,906.4 708.2,910.9 708.3,912.5 708,913.7 707.5,914.2 706.2,914.5 704.3,914.3 701.7,914 700,913.9 695.5,914.2 
		693.9,914.2 689.3,913.9 688.1,913.8 687.5,913.5 687.3,912.4 687.3,910.7 687.6,906.5 687.7,904.9 687.7,897.3 687.8,891.2 
		687.8,889.6 687.9,883.6 687.9,882 687.5,875.9 687.4,874.3 687.4,866.6 687.2,860.7 687.2,859.3 686.9,858.5 685.9,858.3 
		684.4,858.3 681.1,858.5 679.3,858.5 676.6,858.3 674.9,858.2 673.1,858.3 670.8,858.4 669.3,858.4 668.5,858.3 667.4,858.1 
		666.8,857.7 666.4,857 666.2,856 666.2,855.3 666.1,853.7 666.3,850.7 666.3,849.2 666,845.3 666.1,843.7 666.4,842.4 666.8,841.7 
		667.4,841.4 668.4,841.2 670.7,841.2 674.5,841.5 676.1,841.5 681.9,841.1 683.6,841.1 689.5,841.6 691.1,841.6 698.6,841.1 
		704.5,841.2 706.1,841.2 713.7,841.1 721.1,841.1 724.5,840.9 726.2,841 727,841.1 728.2,841.3 728.9,841.7 729.4,842.4 
		729.6,843.6 729.6,844.3 729.7,845.8 	"/>
	<polygon class="st0" points="832,898 832,899.6 831.6,905.1 831.6,906.7 831.5,912.2 831.5,913.3 831.2,913.8 830.4,914.1 
		829,914.2 823.8,914.1 817.6,914.1 812.5,913.7 811.9,913.5 811.6,913.2 811.6,912.2 811.4,909.7 811.4,908.1 811.3,906.6 
		811.3,905.1 811,899.6 811.1,898 811.4,892.5 811.5,890.9 811.2,885.3 811.2,883.7 811.1,878.3 811.1,869.6 811,864 811,862.4 
		811.1,856.9 811.1,848.3 810.9,842.7 811.2,841.6 811.8,841.2 812.8,841.1 813.6,841.1 815.1,841 817.6,841.1 819.2,841.1 
		823.8,840.9 830.1,840.9 831.2,841.1 831.4,841.7 831.5,842.8 831.7,845.4 831.8,847 831.8,856.9 831.9,862.4 831.9,864 
		831.8,869.6 831.8,871.2 831.9,876.7 831.9,878.3 831.7,883.7 831.7,892.5 	"/>
	<polygon class="st0" points="377.1,988 376.8,989.3 376.5,990.2 375.9,991.8 374.5,994.5 373.8,996 372,1001.7 371.3,1003.2 
		368.7,1008.6 367.9,1010.1 366.1,1015.7 365.5,1017.3 363.4,1022.7 362.8,1024.3 360.6,1029.8 359.9,1031.3 357.1,1036.7 
		356.4,1038.2 354.2,1043.6 353.6,1045.3 351.2,1050.5 350.6,1052.1 348.2,1057.6 347.8,1058.7 347.2,1059.1 346,1059.2 
		338.6,1059.1 337,1059.2 331.4,1059.7 329.6,1059.8 328.3,1059.6 327.6,1058.9 327,1057.7 324.8,1052.3 324.2,1050.8 321.6,1045.3 
		321,1043.7 318.7,1038.4 318.1,1036.8 316.3,1031.2 315.7,1029.6 313.3,1024.2 312.7,1022.7 310,1017.2 309.4,1015.7 307.4,1010.2 
		306.7,1008.6 304.3,1003.3 303.7,1001.7 301.9,996 301.2,994.5 299.4,991.6 298.8,990.1 298.5,989.2 298.3,987.9 298.6,986.9 
		299.3,986.3 300.4,986 301,985.9 302.6,985.9 307.1,986.2 312,986.1 318.4,986.5 319.7,986.6 320.6,986.9 321.2,987.7 321.6,988.7 
		322,990.1 323,993.4 323.5,995 325.9,1000.3 326.5,1001.9 328.5,1007.3 329.1,1008.9 331.2,1015.2 331.8,1016.9 334,1023.1 
		336.5,1031.2 337,1032.3 337.7,1032.7 338.6,1032.3 339.2,1031.2 341.7,1024.9 342.2,1023.3 343.8,1016.8 344.3,1015.1 
		347.1,1009.1 347.6,1007.5 349.4,1001.9 349.9,1000.4 352.4,995 352.9,993.5 353.9,989.8 354.5,988.1 355.3,986.7 356,986.3 
		357.2,986.1 357.9,986.1 359.6,986 362.1,986.2 368.6,986.2 373.2,985.9 375,986.1 376.2,986.4 376.8,987 	"/>
	<path class="st0" d="M492.4,1056.4l0.3,1.4l-0.7,1.1l-1.1,0.5l-1.3,0.2h-1.4l-2.3-0.2l-1.5-0.1h-4.5l-6.3,0.4l-1.3-0.4l-0.6-0.8
		l-0.5-1.1l-3.1-8.5l-0.7-1l-0.9-0.2l-1.2-0.1l-6.1-0.4h-1.6l-7.6-0.2l-6.1-0.1h-1.5l-1.5,0.1h-4.6l-1.3,0.2l-0.8,0.5l-0.6,1.2
		l-2.3,6.9l-0.6,1.6l-1.1,1.3l-1.5,0.6l-1.6-0.1l-5.9-0.3h-1.6l-6.3,0.4l-1.3,0.1l-1.2-0.6l-0.8-1.1l0.1-1.3l0.2-0.8l0.6-1.6
		l1.4-3.1l0.6-1.5l2.5-5.7l0.6-1.4l2.6-5.7l0.6-1.5l2.3-5.5l0.6-1.5l2.7-5.7l0.6-1.4l3.6-8.3l2.8-6.1l0.7-1.6l2.2-4.5l0.7-1.6
		l1.9-4.6l0.6-1.5l1.8-4.1l0.5-1.1l1-0.6l1.5-0.3l4.7-0.2h7.9l4.7,0.1l1.7,0.3l1.1,0.8l0.5,1.3l1.4,3.9l0.6,1.5l2.5,4.7l0.6,1.4
		l2.2,5l0.6,1.4l1.8,5.2l0.6,1.4l2.2,4.8l0.6,1.4l2.2,5l0.6,1.4l2,5.1l0.6,1.4l3.1,6.3l2.4,4.8l0.7,1.4l2.7,6.4L492.4,1056.4z
		 M458.6,1027.9l-0.4-1.3l-2.2-6.9l-0.5-1.5l-2-6l-0.5-1.3l-1-0.7l-1.3-0.3l-1.1,0.3l-1,1l-2.7,6.9l-0.6,1.5l-2.6,6.8l-0.3,1.5
		l0.3,1.2l1.1,0.5l1.4,0.2h6.4l4.7,0.3l1.3-0.4l0.8-0.8L458.6,1027.9z"/>
	<polygon class="st0" points="609.7,1054.5 609.6,1056.1 609.6,1057 609.3,1058.2 608.7,1058.9 608,1059.2 607,1059.4 606.1,1059.4 
		604.7,1059.5 593.5,1058.9 585.9,1058.9 576.8,1059.5 571,1059.1 563.5,1059.1 558.8,1059.4 557.3,1059.4 555.9,1059.3 
		554.8,1059.1 554.1,1058.7 553.6,1058.1 553.4,1056.9 553.4,1055.3 553.9,1051.4 554,1049.9 553.6,1044.6 553.6,1042.9 
		553.8,1037.6 553.8,1036 554,1023.6 554,1022 553.6,1009.7 553.6,1008.1 553.5,1002.7 553.5,994.1 553.3,991.1 553.3,989.6 
		553.4,988.7 553.7,987.4 554.1,986.7 554.8,986.4 555.9,986.2 556.7,986.2 558.2,986.1 563.2,986.4 564.8,986.4 572,986.3 
		573,986.3 573.7,986.7 574.2,987.5 574.2,996.2 574.4,1002.1 574.4,1003.7 574.1,1009.6 574.1,1011.2 574.3,1017.1 574.3,1018.7 
		574.6,1024.5 574.6,1026.2 574,1039.5 574.1,1040.5 574.2,1041 574.4,1041.5 574.9,1041.9 576.1,1042.1 579.6,1042.3 582.6,1042.1 
		584.2,1042.1 598.8,1041.9 600.4,1041.8 603.8,1041.4 605.4,1041.3 607,1041.3 608.2,1041.6 608.9,1042.2 609.2,1042.9 609.3,1044 
		609.4,1049.7 609.5,1051.3 	"/>
	<rect x="650.8" y="1017.2" class="st0" width="314.3" height="11.2"/>
	<rect x="235.8" y="573.3" class="st0" width="101.9" height="11.2"/>
</g>
</svg>
